<mxfile host="app.diagrams.net" agent="Mozilla/5.0 (Windows NT 10.0; Win64; x64; rv:133.0) Gecko/20100101 Firefox/133.0" version="25.0.1">
  <diagram id="C5RBs43oDa-KdzZeNtuy" name="Page-1">
    <mxGraphModel dx="1567" dy="220" grid="1" gridSize="10" guides="1" tooltips="1" connect="1" arrows="1" fold="1" page="1" pageScale="1" pageWidth="1169" pageHeight="827" math="0" shadow="0">
      <root>
        <mxCell id="WIyWlLk6GJQsqaUBKTNV-0" />
        <mxCell id="WIyWlLk6GJQsqaUBKTNV-1" parent="WIyWlLk6GJQsqaUBKTNV-0" />
        <mxCell id="gozU1Z4TzMXtubI0LWsz-75" style="edgeStyle=orthogonalEdgeStyle;shape=connector;curved=0;rounded=1;orthogonalLoop=1;jettySize=auto;html=1;exitX=1;exitY=0.5;exitDx=0;exitDy=0;entryX=0;entryY=0.5;entryDx=0;entryDy=0;strokeColor=default;align=center;verticalAlign=middle;fontFamily=Helvetica;fontSize=11;fontColor=default;labelBackgroundColor=default;endArrow=classic;" edge="1" parent="WIyWlLk6GJQsqaUBKTNV-1" source="WIyWlLk6GJQsqaUBKTNV-3" target="gozU1Z4TzMXtubI0LWsz-2">
          <mxGeometry relative="1" as="geometry" />
        </mxCell>
        <mxCell id="WIyWlLk6GJQsqaUBKTNV-3" value="Skriv ut meny" style="rounded=1;whiteSpace=wrap;html=1;fontSize=12;glass=0;strokeWidth=1;shadow=0;" parent="WIyWlLk6GJQsqaUBKTNV-1" vertex="1">
          <mxGeometry x="-710" y="385" width="86" height="30" as="geometry" />
        </mxCell>
        <mxCell id="gozU1Z4TzMXtubI0LWsz-74" style="edgeStyle=orthogonalEdgeStyle;shape=connector;curved=0;rounded=1;orthogonalLoop=1;jettySize=auto;html=1;exitX=1;exitY=0.5;exitDx=0;exitDy=0;entryX=0;entryY=0.5;entryDx=0;entryDy=0;strokeColor=default;align=center;verticalAlign=middle;fontFamily=Helvetica;fontSize=11;fontColor=default;labelBackgroundColor=default;endArrow=classic;" edge="1" parent="WIyWlLk6GJQsqaUBKTNV-1" source="gozU1Z4TzMXtubI0LWsz-0" target="WIyWlLk6GJQsqaUBKTNV-3">
          <mxGeometry relative="1" as="geometry" />
        </mxCell>
        <mxCell id="gozU1Z4TzMXtubI0LWsz-0" value="Start" style="ellipse;whiteSpace=wrap;html=1;aspect=fixed;" vertex="1" parent="WIyWlLk6GJQsqaUBKTNV-1">
          <mxGeometry x="-810" y="370" width="60" height="60" as="geometry" />
        </mxCell>
        <mxCell id="gozU1Z4TzMXtubI0LWsz-177" style="edgeStyle=orthogonalEdgeStyle;shape=connector;curved=0;rounded=1;orthogonalLoop=1;jettySize=auto;html=1;exitX=1;exitY=0.5;exitDx=0;exitDy=0;entryX=0;entryY=0.5;entryDx=0;entryDy=0;strokeColor=default;align=center;verticalAlign=middle;fontFamily=Helvetica;fontSize=11;fontColor=default;labelBackgroundColor=default;endArrow=classic;" edge="1" parent="WIyWlLk6GJQsqaUBKTNV-1" source="gozU1Z4TzMXtubI0LWsz-2" target="gozU1Z4TzMXtubI0LWsz-118">
          <mxGeometry relative="1" as="geometry" />
        </mxCell>
        <mxCell id="gozU1Z4TzMXtubI0LWsz-178" style="edgeStyle=orthogonalEdgeStyle;shape=connector;curved=0;rounded=1;orthogonalLoop=1;jettySize=auto;html=1;exitX=1;exitY=0.5;exitDx=0;exitDy=0;entryX=0;entryY=0.5;entryDx=0;entryDy=0;strokeColor=default;align=center;verticalAlign=middle;fontFamily=Helvetica;fontSize=11;fontColor=default;labelBackgroundColor=default;endArrow=classic;" edge="1" parent="WIyWlLk6GJQsqaUBKTNV-1" source="gozU1Z4TzMXtubI0LWsz-2" target="gozU1Z4TzMXtubI0LWsz-123">
          <mxGeometry relative="1" as="geometry" />
        </mxCell>
        <mxCell id="gozU1Z4TzMXtubI0LWsz-179" style="edgeStyle=orthogonalEdgeStyle;shape=connector;curved=0;rounded=1;orthogonalLoop=1;jettySize=auto;html=1;exitX=1;exitY=0.5;exitDx=0;exitDy=0;entryX=0;entryY=0.5;entryDx=0;entryDy=0;strokeColor=default;align=center;verticalAlign=middle;fontFamily=Helvetica;fontSize=11;fontColor=default;labelBackgroundColor=default;endArrow=classic;" edge="1" parent="WIyWlLk6GJQsqaUBKTNV-1" source="gozU1Z4TzMXtubI0LWsz-2" target="gozU1Z4TzMXtubI0LWsz-128">
          <mxGeometry relative="1" as="geometry" />
        </mxCell>
        <mxCell id="gozU1Z4TzMXtubI0LWsz-180" style="edgeStyle=orthogonalEdgeStyle;shape=connector;curved=0;rounded=1;orthogonalLoop=1;jettySize=auto;html=1;exitX=1;exitY=0.5;exitDx=0;exitDy=0;entryX=0;entryY=0.5;entryDx=0;entryDy=0;strokeColor=default;align=center;verticalAlign=middle;fontFamily=Helvetica;fontSize=11;fontColor=default;labelBackgroundColor=default;endArrow=classic;" edge="1" parent="WIyWlLk6GJQsqaUBKTNV-1" source="gozU1Z4TzMXtubI0LWsz-2" target="gozU1Z4TzMXtubI0LWsz-147">
          <mxGeometry relative="1" as="geometry" />
        </mxCell>
        <mxCell id="gozU1Z4TzMXtubI0LWsz-181" style="edgeStyle=orthogonalEdgeStyle;shape=connector;curved=0;rounded=1;orthogonalLoop=1;jettySize=auto;html=1;exitX=1;exitY=0.5;exitDx=0;exitDy=0;entryX=0;entryY=0.5;entryDx=0;entryDy=0;strokeColor=default;align=center;verticalAlign=middle;fontFamily=Helvetica;fontSize=11;fontColor=default;labelBackgroundColor=default;endArrow=classic;" edge="1" parent="WIyWlLk6GJQsqaUBKTNV-1" source="gozU1Z4TzMXtubI0LWsz-2" target="gozU1Z4TzMXtubI0LWsz-157">
          <mxGeometry relative="1" as="geometry" />
        </mxCell>
        <mxCell id="gozU1Z4TzMXtubI0LWsz-182" style="edgeStyle=orthogonalEdgeStyle;shape=connector;curved=0;rounded=1;orthogonalLoop=1;jettySize=auto;html=1;exitX=1;exitY=0.5;exitDx=0;exitDy=0;entryX=0;entryY=0.5;entryDx=0;entryDy=0;strokeColor=default;align=center;verticalAlign=middle;fontFamily=Helvetica;fontSize=11;fontColor=default;labelBackgroundColor=default;endArrow=classic;" edge="1" parent="WIyWlLk6GJQsqaUBKTNV-1" source="gozU1Z4TzMXtubI0LWsz-2" target="gozU1Z4TzMXtubI0LWsz-164">
          <mxGeometry relative="1" as="geometry" />
        </mxCell>
        <mxCell id="gozU1Z4TzMXtubI0LWsz-183" style="edgeStyle=orthogonalEdgeStyle;shape=connector;curved=0;rounded=1;orthogonalLoop=1;jettySize=auto;html=1;exitX=1;exitY=0.5;exitDx=0;exitDy=0;entryX=0;entryY=0.5;entryDx=0;entryDy=0;strokeColor=default;align=center;verticalAlign=middle;fontFamily=Helvetica;fontSize=11;fontColor=default;labelBackgroundColor=default;endArrow=classic;" edge="1" parent="WIyWlLk6GJQsqaUBKTNV-1" source="gozU1Z4TzMXtubI0LWsz-2" target="gozU1Z4TzMXtubI0LWsz-175">
          <mxGeometry relative="1" as="geometry" />
        </mxCell>
        <mxCell id="gozU1Z4TzMXtubI0LWsz-2" value="Läs in menyval" style="shape=parallelogram;perimeter=parallelogramPerimeter;whiteSpace=wrap;html=1;fixedSize=1;" vertex="1" parent="WIyWlLk6GJQsqaUBKTNV-1">
          <mxGeometry x="-590" y="385" width="120" height="30" as="geometry" />
        </mxCell>
        <mxCell id="gozU1Z4TzMXtubI0LWsz-194" style="edgeStyle=orthogonalEdgeStyle;shape=connector;curved=0;rounded=1;orthogonalLoop=1;jettySize=auto;html=1;exitX=1;exitY=0.5;exitDx=0;exitDy=0;entryX=0.5;entryY=0;entryDx=0;entryDy=0;strokeColor=default;align=center;verticalAlign=middle;fontFamily=Helvetica;fontSize=11;fontColor=default;labelBackgroundColor=default;endArrow=classic;" edge="1" parent="WIyWlLk6GJQsqaUBKTNV-1" source="gozU1Z4TzMXtubI0LWsz-46" target="WIyWlLk6GJQsqaUBKTNV-3">
          <mxGeometry relative="1" as="geometry">
            <Array as="points">
              <mxPoint x="-48" y="145" />
              <mxPoint x="-48" y="220" />
              <mxPoint x="-667" y="220" />
            </Array>
          </mxGeometry>
        </mxCell>
        <mxCell id="gozU1Z4TzMXtubI0LWsz-46" value="Skriv ut alla inlägg" style="rounded=1;whiteSpace=wrap;html=1;fillColor=#d5e8d4;strokeColor=#82b366;" vertex="1" parent="WIyWlLk6GJQsqaUBKTNV-1">
          <mxGeometry x="-138.5" y="125" width="70" height="40" as="geometry" />
        </mxCell>
        <mxCell id="gozU1Z4TzMXtubI0LWsz-191" style="edgeStyle=orthogonalEdgeStyle;shape=connector;curved=0;rounded=1;orthogonalLoop=1;jettySize=auto;html=1;exitX=0.5;exitY=0;exitDx=0;exitDy=0;entryX=0.5;entryY=0;entryDx=0;entryDy=0;strokeColor=default;align=center;verticalAlign=middle;fontFamily=Helvetica;fontSize=11;fontColor=default;labelBackgroundColor=default;endArrow=classic;" edge="1" parent="WIyWlLk6GJQsqaUBKTNV-1" source="gozU1Z4TzMXtubI0LWsz-66" target="WIyWlLk6GJQsqaUBKTNV-3">
          <mxGeometry relative="1" as="geometry">
            <Array as="points">
              <mxPoint x="-220" y="220" />
              <mxPoint x="-667" y="220" />
            </Array>
          </mxGeometry>
        </mxCell>
        <mxCell id="gozU1Z4TzMXtubI0LWsz-193" style="edgeStyle=orthogonalEdgeStyle;shape=connector;curved=0;rounded=1;orthogonalLoop=1;jettySize=auto;html=1;exitX=1;exitY=0.5;exitDx=0;exitDy=0;strokeColor=default;align=center;verticalAlign=middle;fontFamily=Helvetica;fontSize=11;fontColor=default;labelBackgroundColor=default;endArrow=classic;" edge="1" parent="WIyWlLk6GJQsqaUBKTNV-1" source="gozU1Z4TzMXtubI0LWsz-66">
          <mxGeometry relative="1" as="geometry">
            <mxPoint x="-140" y="145" as="targetPoint" />
          </mxGeometry>
        </mxCell>
        <mxCell id="gozU1Z4TzMXtubI0LWsz-66" value="Är listan tom?" style="rhombus;whiteSpace=wrap;html=1;fillColor=#d5e8d4;strokeColor=#82b366;" vertex="1" parent="WIyWlLk6GJQsqaUBKTNV-1">
          <mxGeometry x="-258.5" y="110" width="76" height="70" as="geometry" />
        </mxCell>
        <mxCell id="gozU1Z4TzMXtubI0LWsz-185" style="edgeStyle=orthogonalEdgeStyle;shape=connector;curved=0;rounded=1;orthogonalLoop=1;jettySize=auto;html=1;exitX=1;exitY=0.5;exitDx=0;exitDy=0;entryX=0;entryY=0.5;entryDx=0;entryDy=0;strokeColor=default;align=center;verticalAlign=middle;fontFamily=Helvetica;fontSize=11;fontColor=default;labelBackgroundColor=default;endArrow=classic;" edge="1" parent="WIyWlLk6GJQsqaUBKTNV-1" source="gozU1Z4TzMXtubI0LWsz-90" target="gozU1Z4TzMXtubI0LWsz-92">
          <mxGeometry relative="1" as="geometry" />
        </mxCell>
        <mxCell id="gozU1Z4TzMXtubI0LWsz-90" value="Läs in titel" style="shape=parallelogram;perimeter=parallelogramPerimeter;whiteSpace=wrap;html=1;fixedSize=1;fillColor=#dae8fc;strokeColor=#6c8ebf;" vertex="1" parent="WIyWlLk6GJQsqaUBKTNV-1">
          <mxGeometry x="-258.5" y="25" width="120" height="30" as="geometry" />
        </mxCell>
        <mxCell id="gozU1Z4TzMXtubI0LWsz-187" style="edgeStyle=orthogonalEdgeStyle;shape=connector;curved=0;rounded=1;orthogonalLoop=1;jettySize=auto;html=1;exitX=1;exitY=0.5;exitDx=0;exitDy=0;entryX=0;entryY=0.5;entryDx=0;entryDy=0;strokeColor=default;align=center;verticalAlign=middle;fontFamily=Helvetica;fontSize=11;fontColor=default;labelBackgroundColor=default;endArrow=classic;" edge="1" parent="WIyWlLk6GJQsqaUBKTNV-1" source="gozU1Z4TzMXtubI0LWsz-92" target="gozU1Z4TzMXtubI0LWsz-94">
          <mxGeometry relative="1" as="geometry" />
        </mxCell>
        <mxCell id="gozU1Z4TzMXtubI0LWsz-92" value="Läs in brödtext" style="shape=parallelogram;perimeter=parallelogramPerimeter;whiteSpace=wrap;html=1;fixedSize=1;fillColor=#dae8fc;strokeColor=#6c8ebf;" vertex="1" parent="WIyWlLk6GJQsqaUBKTNV-1">
          <mxGeometry x="-108.5" y="25" width="120" height="30" as="geometry" />
        </mxCell>
        <mxCell id="gozU1Z4TzMXtubI0LWsz-188" style="edgeStyle=orthogonalEdgeStyle;shape=connector;curved=0;rounded=1;orthogonalLoop=1;jettySize=auto;html=1;exitX=1;exitY=0.5;exitDx=0;exitDy=0;entryX=0;entryY=0.5;entryDx=0;entryDy=0;strokeColor=default;align=center;verticalAlign=middle;fontFamily=Helvetica;fontSize=11;fontColor=default;labelBackgroundColor=default;endArrow=classic;" edge="1" parent="WIyWlLk6GJQsqaUBKTNV-1" source="gozU1Z4TzMXtubI0LWsz-94" target="gozU1Z4TzMXtubI0LWsz-95">
          <mxGeometry relative="1" as="geometry" />
        </mxCell>
        <mxCell id="gozU1Z4TzMXtubI0LWsz-94" value="Spara datum för inlägget" style="rounded=1;whiteSpace=wrap;html=1;fillColor=#dae8fc;strokeColor=#6c8ebf;" vertex="1" parent="WIyWlLk6GJQsqaUBKTNV-1">
          <mxGeometry x="41.5" y="20" width="96" height="40" as="geometry" />
        </mxCell>
        <mxCell id="gozU1Z4TzMXtubI0LWsz-189" style="edgeStyle=orthogonalEdgeStyle;shape=connector;curved=0;rounded=1;orthogonalLoop=1;jettySize=auto;html=1;exitX=1;exitY=0.5;exitDx=0;exitDy=0;entryX=0.5;entryY=0;entryDx=0;entryDy=0;strokeColor=default;align=center;verticalAlign=middle;fontFamily=Helvetica;fontSize=11;fontColor=default;labelBackgroundColor=default;endArrow=classic;" edge="1" parent="WIyWlLk6GJQsqaUBKTNV-1" source="gozU1Z4TzMXtubI0LWsz-95" target="WIyWlLk6GJQsqaUBKTNV-3">
          <mxGeometry relative="1" as="geometry">
            <Array as="points">
              <mxPoint x="280" y="40" />
              <mxPoint x="280" y="90" />
              <mxPoint x="-667" y="90" />
            </Array>
          </mxGeometry>
        </mxCell>
        <mxCell id="gozU1Z4TzMXtubI0LWsz-95" value="Spara inlägget" style="rounded=1;whiteSpace=wrap;html=1;fillColor=#dae8fc;strokeColor=#6c8ebf;" vertex="1" parent="WIyWlLk6GJQsqaUBKTNV-1">
          <mxGeometry x="171.5" y="27.75" width="88.5" height="24.5" as="geometry" />
        </mxCell>
        <mxCell id="gozU1Z4TzMXtubI0LWsz-102" value="&lt;font style=&quot;font-size: 12px;&quot;&gt;JA&lt;/font&gt;" style="text;html=1;align=center;verticalAlign=middle;whiteSpace=wrap;rounded=0;fontFamily=Helvetica;fontSize=11;fontColor=default;labelBackgroundColor=default;" vertex="1" parent="WIyWlLk6GJQsqaUBKTNV-1">
          <mxGeometry x="-260" y="170" width="60" height="40" as="geometry" />
        </mxCell>
        <mxCell id="gozU1Z4TzMXtubI0LWsz-103" value="NEJ" style="text;html=1;align=center;verticalAlign=middle;whiteSpace=wrap;rounded=0;fontFamily=Helvetica;fontSize=11;fontColor=default;labelBackgroundColor=default;" vertex="1" parent="WIyWlLk6GJQsqaUBKTNV-1">
          <mxGeometry x="-198.5" y="125" width="60" height="20" as="geometry" />
        </mxCell>
        <mxCell id="gozU1Z4TzMXtubI0LWsz-196" style="edgeStyle=orthogonalEdgeStyle;shape=connector;curved=0;rounded=1;orthogonalLoop=1;jettySize=auto;html=1;exitX=0.5;exitY=1;exitDx=0;exitDy=0;entryX=0.5;entryY=0;entryDx=0;entryDy=0;strokeColor=default;align=center;verticalAlign=middle;fontFamily=Helvetica;fontSize=11;fontColor=default;labelBackgroundColor=default;endArrow=classic;" edge="1" parent="WIyWlLk6GJQsqaUBKTNV-1" source="gozU1Z4TzMXtubI0LWsz-106" target="WIyWlLk6GJQsqaUBKTNV-3">
          <mxGeometry relative="1" as="geometry">
            <Array as="points">
              <mxPoint x="-220" y="340" />
              <mxPoint x="-667" y="340" />
            </Array>
          </mxGeometry>
        </mxCell>
        <mxCell id="gozU1Z4TzMXtubI0LWsz-197" style="edgeStyle=orthogonalEdgeStyle;shape=connector;curved=0;rounded=1;orthogonalLoop=1;jettySize=auto;html=1;exitX=1;exitY=0.5;exitDx=0;exitDy=0;entryX=0;entryY=0.5;entryDx=0;entryDy=0;strokeColor=default;align=center;verticalAlign=middle;fontFamily=Helvetica;fontSize=11;fontColor=default;labelBackgroundColor=default;endArrow=classic;" edge="1" parent="WIyWlLk6GJQsqaUBKTNV-1" source="gozU1Z4TzMXtubI0LWsz-106" target="gozU1Z4TzMXtubI0LWsz-151">
          <mxGeometry relative="1" as="geometry" />
        </mxCell>
        <mxCell id="gozU1Z4TzMXtubI0LWsz-106" value="Är listan tom?" style="rhombus;whiteSpace=wrap;html=1;fillColor=#f8cecc;strokeColor=#b85450;" vertex="1" parent="WIyWlLk6GJQsqaUBKTNV-1">
          <mxGeometry x="-258.5" y="238.5" width="76" height="70" as="geometry" />
        </mxCell>
        <mxCell id="gozU1Z4TzMXtubI0LWsz-184" style="edgeStyle=orthogonalEdgeStyle;shape=connector;curved=0;rounded=1;orthogonalLoop=1;jettySize=auto;html=1;exitX=1;exitY=0.5;exitDx=0;exitDy=0;entryX=0;entryY=0.5;entryDx=0;entryDy=0;strokeColor=default;align=center;verticalAlign=middle;fontFamily=Helvetica;fontSize=11;fontColor=default;labelBackgroundColor=default;endArrow=classic;" edge="1" parent="WIyWlLk6GJQsqaUBKTNV-1" source="gozU1Z4TzMXtubI0LWsz-118" target="gozU1Z4TzMXtubI0LWsz-90">
          <mxGeometry relative="1" as="geometry" />
        </mxCell>
        <mxCell id="gozU1Z4TzMXtubI0LWsz-118" value="&lt;div&gt;&lt;font style=&quot;font-size: 12px;&quot;&gt;Val 1 - Skapa ett nytt inlägg&lt;/font&gt;&lt;br&gt;&lt;/div&gt;" style="rounded=0;whiteSpace=wrap;html=1;fontFamily=Helvetica;fontSize=11;labelBackgroundColor=none;fillColor=#dae8fc;strokeColor=#6c8ebf;" vertex="1" parent="WIyWlLk6GJQsqaUBKTNV-1">
          <mxGeometry x="-410" y="20" width="120" height="40" as="geometry" />
        </mxCell>
        <mxCell id="gozU1Z4TzMXtubI0LWsz-190" style="edgeStyle=orthogonalEdgeStyle;shape=connector;curved=0;rounded=1;orthogonalLoop=1;jettySize=auto;html=1;exitX=1;exitY=0.5;exitDx=0;exitDy=0;entryX=0;entryY=0.5;entryDx=0;entryDy=0;strokeColor=default;align=center;verticalAlign=middle;fontFamily=Helvetica;fontSize=11;fontColor=default;labelBackgroundColor=default;endArrow=classic;" edge="1" parent="WIyWlLk6GJQsqaUBKTNV-1" source="gozU1Z4TzMXtubI0LWsz-123" target="gozU1Z4TzMXtubI0LWsz-66">
          <mxGeometry relative="1" as="geometry" />
        </mxCell>
        <mxCell id="gozU1Z4TzMXtubI0LWsz-123" value="&lt;font style=&quot;font-size: 12px;&quot;&gt;Val 2 - Skriv ut alla inlägg&lt;/font&gt;" style="rounded=0;whiteSpace=wrap;html=1;fontFamily=Helvetica;fontSize=11;labelBackgroundColor=none;fillColor=#d5e8d4;strokeColor=#82b366;" vertex="1" parent="WIyWlLk6GJQsqaUBKTNV-1">
          <mxGeometry x="-410" y="125" width="120" height="40" as="geometry" />
        </mxCell>
        <mxCell id="gozU1Z4TzMXtubI0LWsz-195" style="edgeStyle=orthogonalEdgeStyle;shape=connector;curved=0;rounded=1;orthogonalLoop=1;jettySize=auto;html=1;exitX=1;exitY=0.5;exitDx=0;exitDy=0;entryX=0;entryY=0.5;entryDx=0;entryDy=0;strokeColor=default;align=center;verticalAlign=middle;fontFamily=Helvetica;fontSize=11;fontColor=default;labelBackgroundColor=default;endArrow=classic;" edge="1" parent="WIyWlLk6GJQsqaUBKTNV-1" source="gozU1Z4TzMXtubI0LWsz-128" target="gozU1Z4TzMXtubI0LWsz-106">
          <mxGeometry relative="1" as="geometry" />
        </mxCell>
        <mxCell id="gozU1Z4TzMXtubI0LWsz-128" value="&lt;font style=&quot;font-size: 12px;&quot;&gt;Val 3 - Redigera inlägg&lt;br&gt;&lt;/font&gt;" style="rounded=0;whiteSpace=wrap;html=1;fontFamily=Helvetica;fontSize=11;labelBackgroundColor=none;fillColor=#f8cecc;strokeColor=#b85450;" vertex="1" parent="WIyWlLk6GJQsqaUBKTNV-1">
          <mxGeometry x="-410" y="253.5" width="120" height="40" as="geometry" />
        </mxCell>
        <mxCell id="gozU1Z4TzMXtubI0LWsz-199" style="edgeStyle=orthogonalEdgeStyle;shape=connector;curved=0;rounded=1;orthogonalLoop=1;jettySize=auto;html=1;exitX=1;exitY=0.5;exitDx=0;exitDy=0;entryX=0;entryY=0.5;entryDx=0;entryDy=0;strokeColor=default;align=center;verticalAlign=middle;fontFamily=Helvetica;fontSize=11;fontColor=default;labelBackgroundColor=default;endArrow=classic;" edge="1" parent="WIyWlLk6GJQsqaUBKTNV-1" source="gozU1Z4TzMXtubI0LWsz-134" target="gozU1Z4TzMXtubI0LWsz-154">
          <mxGeometry relative="1" as="geometry" />
        </mxCell>
        <mxCell id="gozU1Z4TzMXtubI0LWsz-134" value="Läs in vilket inlägg som ska redigeras" style="shape=parallelogram;perimeter=parallelogramPerimeter;whiteSpace=wrap;html=1;fixedSize=1;fillColor=#f8cecc;strokeColor=#b85450;" vertex="1" parent="WIyWlLk6GJQsqaUBKTNV-1">
          <mxGeometry x="-38.5" y="254" width="240" height="39.25" as="geometry" />
        </mxCell>
        <mxCell id="gozU1Z4TzMXtubI0LWsz-201" style="edgeStyle=orthogonalEdgeStyle;shape=connector;curved=0;rounded=1;orthogonalLoop=1;jettySize=auto;html=1;exitX=1;exitY=0.5;exitDx=0;exitDy=0;entryX=0;entryY=0.5;entryDx=0;entryDy=0;strokeColor=default;align=center;verticalAlign=middle;fontFamily=Helvetica;fontSize=11;fontColor=default;labelBackgroundColor=default;endArrow=classic;" edge="1" parent="WIyWlLk6GJQsqaUBKTNV-1" source="gozU1Z4TzMXtubI0LWsz-135" target="gozU1Z4TzMXtubI0LWsz-137">
          <mxGeometry relative="1" as="geometry" />
        </mxCell>
        <mxCell id="gozU1Z4TzMXtubI0LWsz-135" value="Läs in ny titel" style="shape=parallelogram;perimeter=parallelogramPerimeter;whiteSpace=wrap;html=1;fixedSize=1;fillColor=#f8cecc;strokeColor=#b85450;" vertex="1" parent="WIyWlLk6GJQsqaUBKTNV-1">
          <mxGeometry x="341.5" y="258.5" width="120" height="30" as="geometry" />
        </mxCell>
        <mxCell id="gozU1Z4TzMXtubI0LWsz-202" style="edgeStyle=orthogonalEdgeStyle;shape=connector;curved=0;rounded=1;orthogonalLoop=1;jettySize=auto;html=1;exitX=1;exitY=0.5;exitDx=0;exitDy=0;entryX=0;entryY=0.5;entryDx=0;entryDy=0;strokeColor=default;align=center;verticalAlign=middle;fontFamily=Helvetica;fontSize=11;fontColor=default;labelBackgroundColor=default;endArrow=classic;" edge="1" parent="WIyWlLk6GJQsqaUBKTNV-1" source="gozU1Z4TzMXtubI0LWsz-137" target="gozU1Z4TzMXtubI0LWsz-142">
          <mxGeometry relative="1" as="geometry" />
        </mxCell>
        <mxCell id="gozU1Z4TzMXtubI0LWsz-137" value="Läs in ny brödtext" style="shape=parallelogram;perimeter=parallelogramPerimeter;whiteSpace=wrap;html=1;fixedSize=1;fillColor=#f8cecc;strokeColor=#b85450;" vertex="1" parent="WIyWlLk6GJQsqaUBKTNV-1">
          <mxGeometry x="481.5" y="258.5" width="131" height="30" as="geometry" />
        </mxCell>
        <mxCell id="gozU1Z4TzMXtubI0LWsz-207" style="edgeStyle=orthogonalEdgeStyle;shape=connector;curved=0;rounded=1;orthogonalLoop=1;jettySize=auto;html=1;exitX=1;exitY=0.5;exitDx=0;exitDy=0;entryX=0;entryY=0.5;entryDx=0;entryDy=0;strokeColor=default;align=center;verticalAlign=middle;fontFamily=Helvetica;fontSize=11;fontColor=default;labelBackgroundColor=default;endArrow=classic;" edge="1" parent="WIyWlLk6GJQsqaUBKTNV-1" source="gozU1Z4TzMXtubI0LWsz-139" target="gozU1Z4TzMXtubI0LWsz-152">
          <mxGeometry relative="1" as="geometry" />
        </mxCell>
        <mxCell id="gozU1Z4TzMXtubI0LWsz-139" value="Skriv ut alla inlägg" style="rounded=1;whiteSpace=wrap;html=1;fillColor=#ffe6cc;strokeColor=#d79b00;" vertex="1" parent="WIyWlLk6GJQsqaUBKTNV-1">
          <mxGeometry x="-138.5" y="380" width="70" height="40" as="geometry" />
        </mxCell>
        <mxCell id="gozU1Z4TzMXtubI0LWsz-142" value="Spara nytt datum för inlägget" style="rounded=1;whiteSpace=wrap;html=1;fillColor=#f8cecc;strokeColor=#b85450;" vertex="1" parent="WIyWlLk6GJQsqaUBKTNV-1">
          <mxGeometry x="651.5" y="254" width="96" height="40" as="geometry" />
        </mxCell>
        <mxCell id="gozU1Z4TzMXtubI0LWsz-204" style="edgeStyle=orthogonalEdgeStyle;shape=connector;curved=0;rounded=1;orthogonalLoop=1;jettySize=auto;html=1;exitX=1;exitY=0.5;exitDx=0;exitDy=0;entryX=0;entryY=0.5;entryDx=0;entryDy=0;strokeColor=default;align=center;verticalAlign=middle;fontFamily=Helvetica;fontSize=11;fontColor=default;labelBackgroundColor=default;endArrow=classic;" edge="1" parent="WIyWlLk6GJQsqaUBKTNV-1" source="gozU1Z4TzMXtubI0LWsz-147" target="gozU1Z4TzMXtubI0LWsz-150">
          <mxGeometry relative="1" as="geometry" />
        </mxCell>
        <mxCell id="gozU1Z4TzMXtubI0LWsz-147" value="&lt;font style=&quot;font-size: 12px;&quot;&gt;Val 4 - Ta bort inlägg&lt;br&gt;&lt;/font&gt;" style="rounded=0;whiteSpace=wrap;html=1;fontFamily=Helvetica;fontSize=11;labelBackgroundColor=none;fillColor=#fff2cc;strokeColor=#d6b656;" vertex="1" parent="WIyWlLk6GJQsqaUBKTNV-1">
          <mxGeometry x="-410" y="385" width="120" height="30" as="geometry" />
        </mxCell>
        <mxCell id="gozU1Z4TzMXtubI0LWsz-206" style="edgeStyle=orthogonalEdgeStyle;shape=connector;curved=0;rounded=1;orthogonalLoop=1;jettySize=auto;html=1;exitX=1;exitY=0.5;exitDx=0;exitDy=0;entryX=0;entryY=0.5;entryDx=0;entryDy=0;strokeColor=default;align=center;verticalAlign=middle;fontFamily=Helvetica;fontSize=11;fontColor=default;labelBackgroundColor=default;endArrow=classic;" edge="1" parent="WIyWlLk6GJQsqaUBKTNV-1" source="gozU1Z4TzMXtubI0LWsz-150" target="gozU1Z4TzMXtubI0LWsz-139">
          <mxGeometry relative="1" as="geometry" />
        </mxCell>
        <mxCell id="gozU1Z4TzMXtubI0LWsz-212" style="edgeStyle=orthogonalEdgeStyle;shape=connector;curved=0;rounded=1;orthogonalLoop=1;jettySize=auto;html=1;exitX=0.5;exitY=1;exitDx=0;exitDy=0;entryX=0.5;entryY=1;entryDx=0;entryDy=0;strokeColor=default;align=center;verticalAlign=middle;fontFamily=Helvetica;fontSize=11;fontColor=default;labelBackgroundColor=default;endArrow=classic;" edge="1" parent="WIyWlLk6GJQsqaUBKTNV-1" source="gozU1Z4TzMXtubI0LWsz-150" target="WIyWlLk6GJQsqaUBKTNV-3">
          <mxGeometry relative="1" as="geometry">
            <Array as="points">
              <mxPoint x="-220" y="470" />
              <mxPoint x="-667" y="470" />
            </Array>
          </mxGeometry>
        </mxCell>
        <mxCell id="gozU1Z4TzMXtubI0LWsz-150" value="Är listan tom?" style="rhombus;whiteSpace=wrap;html=1;fillColor=#ffe6cc;strokeColor=#d79b00;" vertex="1" parent="WIyWlLk6GJQsqaUBKTNV-1">
          <mxGeometry x="-258.5" y="365" width="76" height="70" as="geometry" />
        </mxCell>
        <mxCell id="gozU1Z4TzMXtubI0LWsz-198" style="edgeStyle=orthogonalEdgeStyle;shape=connector;curved=0;rounded=1;orthogonalLoop=1;jettySize=auto;html=1;exitX=1;exitY=0.5;exitDx=0;exitDy=0;entryX=0;entryY=0.5;entryDx=0;entryDy=0;strokeColor=default;align=center;verticalAlign=middle;fontFamily=Helvetica;fontSize=11;fontColor=default;labelBackgroundColor=default;endArrow=classic;" edge="1" parent="WIyWlLk6GJQsqaUBKTNV-1" source="gozU1Z4TzMXtubI0LWsz-151" target="gozU1Z4TzMXtubI0LWsz-134">
          <mxGeometry relative="1" as="geometry" />
        </mxCell>
        <mxCell id="gozU1Z4TzMXtubI0LWsz-151" value="Skriv ut alla inlägg" style="rounded=1;whiteSpace=wrap;html=1;fillColor=#f8cecc;strokeColor=#b85450;" vertex="1" parent="WIyWlLk6GJQsqaUBKTNV-1">
          <mxGeometry x="-138.5" y="254" width="70" height="40" as="geometry" />
        </mxCell>
        <mxCell id="gozU1Z4TzMXtubI0LWsz-208" style="edgeStyle=orthogonalEdgeStyle;shape=connector;curved=0;rounded=1;orthogonalLoop=1;jettySize=auto;html=1;exitX=1;exitY=0.5;exitDx=0;exitDy=0;entryX=0;entryY=0.5;entryDx=0;entryDy=0;strokeColor=default;align=center;verticalAlign=middle;fontFamily=Helvetica;fontSize=11;fontColor=default;labelBackgroundColor=default;endArrow=classic;" edge="1" parent="WIyWlLk6GJQsqaUBKTNV-1" source="gozU1Z4TzMXtubI0LWsz-152" target="gozU1Z4TzMXtubI0LWsz-153">
          <mxGeometry relative="1" as="geometry" />
        </mxCell>
        <mxCell id="gozU1Z4TzMXtubI0LWsz-152" value="Läs in vilket inlägg som ska tas bort" style="shape=parallelogram;perimeter=parallelogramPerimeter;whiteSpace=wrap;html=1;fixedSize=1;fillColor=#ffe6cc;strokeColor=#d79b00;" vertex="1" parent="WIyWlLk6GJQsqaUBKTNV-1">
          <mxGeometry x="-38.5" y="380.75" width="240" height="39.25" as="geometry" />
        </mxCell>
        <mxCell id="gozU1Z4TzMXtubI0LWsz-209" style="edgeStyle=orthogonalEdgeStyle;shape=connector;curved=0;rounded=1;orthogonalLoop=1;jettySize=auto;html=1;exitX=1;exitY=0.5;exitDx=0;exitDy=0;strokeColor=default;align=center;verticalAlign=middle;fontFamily=Helvetica;fontSize=11;fontColor=default;labelBackgroundColor=default;endArrow=classic;" edge="1" parent="WIyWlLk6GJQsqaUBKTNV-1" source="gozU1Z4TzMXtubI0LWsz-153" target="gozU1Z4TzMXtubI0LWsz-156">
          <mxGeometry relative="1" as="geometry" />
        </mxCell>
        <mxCell id="gozU1Z4TzMXtubI0LWsz-213" style="edgeStyle=orthogonalEdgeStyle;shape=connector;curved=0;rounded=1;orthogonalLoop=1;jettySize=auto;html=1;exitX=0.5;exitY=1;exitDx=0;exitDy=0;entryX=0.5;entryY=1;entryDx=0;entryDy=0;strokeColor=default;align=center;verticalAlign=middle;fontFamily=Helvetica;fontSize=11;fontColor=default;labelBackgroundColor=default;endArrow=classic;" edge="1" parent="WIyWlLk6GJQsqaUBKTNV-1" source="gozU1Z4TzMXtubI0LWsz-153" target="WIyWlLk6GJQsqaUBKTNV-3">
          <mxGeometry relative="1" as="geometry">
            <Array as="points">
              <mxPoint x="270" y="470" />
              <mxPoint x="-667" y="470" />
            </Array>
          </mxGeometry>
        </mxCell>
        <mxCell id="gozU1Z4TzMXtubI0LWsz-153" value="Finns inlägget?" style="rhombus;whiteSpace=wrap;html=1;fillColor=#ffe6cc;strokeColor=#d79b00;" vertex="1" parent="WIyWlLk6GJQsqaUBKTNV-1">
          <mxGeometry x="231.5" y="365" width="76" height="70" as="geometry" />
        </mxCell>
        <mxCell id="gozU1Z4TzMXtubI0LWsz-200" style="edgeStyle=orthogonalEdgeStyle;shape=connector;curved=0;rounded=1;orthogonalLoop=1;jettySize=auto;html=1;exitX=1;exitY=0.5;exitDx=0;exitDy=0;entryX=0;entryY=0.5;entryDx=0;entryDy=0;strokeColor=default;align=center;verticalAlign=middle;fontFamily=Helvetica;fontSize=11;fontColor=default;labelBackgroundColor=default;endArrow=classic;" edge="1" parent="WIyWlLk6GJQsqaUBKTNV-1" source="gozU1Z4TzMXtubI0LWsz-154" target="gozU1Z4TzMXtubI0LWsz-135">
          <mxGeometry relative="1" as="geometry" />
        </mxCell>
        <mxCell id="gozU1Z4TzMXtubI0LWsz-203" style="edgeStyle=orthogonalEdgeStyle;shape=connector;curved=0;rounded=1;orthogonalLoop=1;jettySize=auto;html=1;exitX=0.5;exitY=1;exitDx=0;exitDy=0;strokeColor=default;align=center;verticalAlign=middle;fontFamily=Helvetica;fontSize=11;fontColor=default;labelBackgroundColor=default;endArrow=classic;" edge="1" parent="WIyWlLk6GJQsqaUBKTNV-1" source="gozU1Z4TzMXtubI0LWsz-154" target="WIyWlLk6GJQsqaUBKTNV-3">
          <mxGeometry relative="1" as="geometry">
            <Array as="points">
              <mxPoint x="270" y="340" />
              <mxPoint x="-667" y="340" />
            </Array>
          </mxGeometry>
        </mxCell>
        <mxCell id="gozU1Z4TzMXtubI0LWsz-154" value="Finns inlägget?" style="rhombus;whiteSpace=wrap;html=1;fillColor=#f8cecc;strokeColor=#b85450;" vertex="1" parent="WIyWlLk6GJQsqaUBKTNV-1">
          <mxGeometry x="231.5" y="238.5" width="76" height="70" as="geometry" />
        </mxCell>
        <mxCell id="gozU1Z4TzMXtubI0LWsz-214" style="edgeStyle=orthogonalEdgeStyle;shape=connector;curved=0;rounded=1;orthogonalLoop=1;jettySize=auto;html=1;exitX=1;exitY=0.5;exitDx=0;exitDy=0;entryX=0.5;entryY=1;entryDx=0;entryDy=0;strokeColor=default;align=center;verticalAlign=middle;fontFamily=Helvetica;fontSize=11;fontColor=default;labelBackgroundColor=default;endArrow=classic;" edge="1" parent="WIyWlLk6GJQsqaUBKTNV-1" source="gozU1Z4TzMXtubI0LWsz-156" target="WIyWlLk6GJQsqaUBKTNV-3">
          <mxGeometry relative="1" as="geometry">
            <Array as="points">
              <mxPoint x="450" y="400" />
              <mxPoint x="450" y="470" />
              <mxPoint x="-667" y="470" />
            </Array>
          </mxGeometry>
        </mxCell>
        <mxCell id="gozU1Z4TzMXtubI0LWsz-156" value="Ta bort inlägget" style="rounded=1;whiteSpace=wrap;html=1;fillColor=#ffe6cc;strokeColor=#d79b00;" vertex="1" parent="WIyWlLk6GJQsqaUBKTNV-1">
          <mxGeometry x="341.5" y="387.75" width="88.5" height="24.5" as="geometry" />
        </mxCell>
        <mxCell id="gozU1Z4TzMXtubI0LWsz-215" style="edgeStyle=orthogonalEdgeStyle;shape=connector;curved=0;rounded=1;orthogonalLoop=1;jettySize=auto;html=1;exitX=1;exitY=0.5;exitDx=0;exitDy=0;entryX=0;entryY=0.5;entryDx=0;entryDy=0;strokeColor=default;align=center;verticalAlign=middle;fontFamily=Helvetica;fontSize=11;fontColor=default;labelBackgroundColor=default;endArrow=classic;" edge="1" parent="WIyWlLk6GJQsqaUBKTNV-1" source="gozU1Z4TzMXtubI0LWsz-157" target="gozU1Z4TzMXtubI0LWsz-158">
          <mxGeometry relative="1" as="geometry" />
        </mxCell>
        <mxCell id="gozU1Z4TzMXtubI0LWsz-157" value="&lt;font style=&quot;font-size: 12px;&quot;&gt;Val 5 - Sortera inlägg&lt;br&gt;&lt;/font&gt;" style="rounded=0;whiteSpace=wrap;html=1;fontFamily=Helvetica;fontSize=11;labelBackgroundColor=none;fillColor=#e1d5e7;strokeColor=#9673a6;" vertex="1" parent="WIyWlLk6GJQsqaUBKTNV-1">
          <mxGeometry x="-410" y="510" width="120" height="30" as="geometry" />
        </mxCell>
        <mxCell id="gozU1Z4TzMXtubI0LWsz-216" style="edgeStyle=orthogonalEdgeStyle;shape=connector;curved=0;rounded=1;orthogonalLoop=1;jettySize=auto;html=1;exitX=1;exitY=0.5;exitDx=0;exitDy=0;entryX=0;entryY=0.5;entryDx=0;entryDy=0;strokeColor=default;align=center;verticalAlign=middle;fontFamily=Helvetica;fontSize=11;fontColor=default;labelBackgroundColor=default;endArrow=classic;" edge="1" parent="WIyWlLk6GJQsqaUBKTNV-1" source="gozU1Z4TzMXtubI0LWsz-158" target="gozU1Z4TzMXtubI0LWsz-159">
          <mxGeometry relative="1" as="geometry" />
        </mxCell>
        <mxCell id="gozU1Z4TzMXtubI0LWsz-239" style="edgeStyle=orthogonalEdgeStyle;shape=connector;curved=0;rounded=1;orthogonalLoop=1;jettySize=auto;html=1;exitX=0.5;exitY=1;exitDx=0;exitDy=0;entryX=0.5;entryY=1;entryDx=0;entryDy=0;strokeColor=default;align=center;verticalAlign=middle;fontFamily=Helvetica;fontSize=11;fontColor=default;labelBackgroundColor=default;endArrow=classic;" edge="1" parent="WIyWlLk6GJQsqaUBKTNV-1" source="gozU1Z4TzMXtubI0LWsz-158" target="WIyWlLk6GJQsqaUBKTNV-3">
          <mxGeometry relative="1" as="geometry">
            <Array as="points">
              <mxPoint x="-220" y="600" />
              <mxPoint x="-667" y="600" />
            </Array>
          </mxGeometry>
        </mxCell>
        <mxCell id="gozU1Z4TzMXtubI0LWsz-158" value="Är listan tom?" style="rhombus;whiteSpace=wrap;html=1;fillColor=#e1d5e7;strokeColor=#9673a6;" vertex="1" parent="WIyWlLk6GJQsqaUBKTNV-1">
          <mxGeometry x="-258.5" y="490" width="76" height="70" as="geometry" />
        </mxCell>
        <mxCell id="gozU1Z4TzMXtubI0LWsz-217" style="edgeStyle=orthogonalEdgeStyle;shape=connector;curved=0;rounded=1;orthogonalLoop=1;jettySize=auto;html=1;exitX=1;exitY=0.5;exitDx=0;exitDy=0;entryX=0;entryY=0.5;entryDx=0;entryDy=0;strokeColor=default;align=center;verticalAlign=middle;fontFamily=Helvetica;fontSize=11;fontColor=default;labelBackgroundColor=default;endArrow=classic;" edge="1" parent="WIyWlLk6GJQsqaUBKTNV-1" source="gozU1Z4TzMXtubI0LWsz-159" target="gozU1Z4TzMXtubI0LWsz-160">
          <mxGeometry relative="1" as="geometry" />
        </mxCell>
        <mxCell id="gozU1Z4TzMXtubI0LWsz-159" value="Låt användaren välja mellan sortering i alfabetisk ordning eller efter datum" style="rounded=1;whiteSpace=wrap;html=1;fillColor=#e1d5e7;strokeColor=#9673a6;" vertex="1" parent="WIyWlLk6GJQsqaUBKTNV-1">
          <mxGeometry x="-150" y="502.5" width="178.5" height="45" as="geometry" />
        </mxCell>
        <mxCell id="gozU1Z4TzMXtubI0LWsz-229" style="edgeStyle=orthogonalEdgeStyle;shape=connector;curved=0;rounded=1;orthogonalLoop=1;jettySize=auto;html=1;exitX=1;exitY=0.5;exitDx=0;exitDy=0;entryX=0;entryY=0.5;entryDx=0;entryDy=0;strokeColor=default;align=center;verticalAlign=middle;fontFamily=Helvetica;fontSize=11;fontColor=default;labelBackgroundColor=default;endArrow=classic;" edge="1" parent="WIyWlLk6GJQsqaUBKTNV-1" source="gozU1Z4TzMXtubI0LWsz-160" target="gozU1Z4TzMXtubI0LWsz-161">
          <mxGeometry relative="1" as="geometry" />
        </mxCell>
        <mxCell id="gozU1Z4TzMXtubI0LWsz-230" style="edgeStyle=orthogonalEdgeStyle;shape=connector;curved=0;rounded=1;orthogonalLoop=1;jettySize=auto;html=1;exitX=1;exitY=0.5;exitDx=0;exitDy=0;entryX=0;entryY=0.5;entryDx=0;entryDy=0;strokeColor=default;align=center;verticalAlign=middle;fontFamily=Helvetica;fontSize=11;fontColor=default;labelBackgroundColor=default;endArrow=classic;" edge="1" parent="WIyWlLk6GJQsqaUBKTNV-1" source="gozU1Z4TzMXtubI0LWsz-160" target="gozU1Z4TzMXtubI0LWsz-162">
          <mxGeometry relative="1" as="geometry" />
        </mxCell>
        <mxCell id="gozU1Z4TzMXtubI0LWsz-160" value="Läs in menyval" style="shape=parallelogram;perimeter=parallelogramPerimeter;whiteSpace=wrap;html=1;fixedSize=1;fillColor=#e1d5e7;strokeColor=#9673a6;" vertex="1" parent="WIyWlLk6GJQsqaUBKTNV-1">
          <mxGeometry x="60" y="510" width="120" height="30" as="geometry" />
        </mxCell>
        <mxCell id="gozU1Z4TzMXtubI0LWsz-231" style="edgeStyle=orthogonalEdgeStyle;shape=connector;curved=0;rounded=1;orthogonalLoop=1;jettySize=auto;html=1;exitX=1;exitY=0.5;exitDx=0;exitDy=0;entryX=0;entryY=0.5;entryDx=0;entryDy=0;strokeColor=default;align=center;verticalAlign=middle;fontFamily=Helvetica;fontSize=11;fontColor=default;labelBackgroundColor=default;endArrow=classic;" edge="1" parent="WIyWlLk6GJQsqaUBKTNV-1" source="gozU1Z4TzMXtubI0LWsz-161" target="gozU1Z4TzMXtubI0LWsz-163">
          <mxGeometry relative="1" as="geometry" />
        </mxCell>
        <mxCell id="gozU1Z4TzMXtubI0LWsz-161" value="Sortera i alfabetisk ordning" style="rounded=1;whiteSpace=wrap;html=1;fillColor=#e1d5e7;strokeColor=#9673a6;" vertex="1" parent="WIyWlLk6GJQsqaUBKTNV-1">
          <mxGeometry x="220" y="496.25" width="150" height="24.5" as="geometry" />
        </mxCell>
        <mxCell id="gozU1Z4TzMXtubI0LWsz-232" style="edgeStyle=orthogonalEdgeStyle;shape=connector;curved=0;rounded=1;orthogonalLoop=1;jettySize=auto;html=1;exitX=1;exitY=0.5;exitDx=0;exitDy=0;entryX=0;entryY=0.5;entryDx=0;entryDy=0;strokeColor=default;align=center;verticalAlign=middle;fontFamily=Helvetica;fontSize=11;fontColor=default;labelBackgroundColor=default;endArrow=classic;" edge="1" parent="WIyWlLk6GJQsqaUBKTNV-1" source="gozU1Z4TzMXtubI0LWsz-162" target="gozU1Z4TzMXtubI0LWsz-163">
          <mxGeometry relative="1" as="geometry" />
        </mxCell>
        <mxCell id="gozU1Z4TzMXtubI0LWsz-162" value="Sortera efter datum" style="rounded=1;whiteSpace=wrap;html=1;fillColor=#e1d5e7;strokeColor=#9673a6;" vertex="1" parent="WIyWlLk6GJQsqaUBKTNV-1">
          <mxGeometry x="220" y="529.25" width="150" height="24.5" as="geometry" />
        </mxCell>
        <mxCell id="gozU1Z4TzMXtubI0LWsz-240" style="edgeStyle=orthogonalEdgeStyle;shape=connector;curved=0;rounded=1;orthogonalLoop=1;jettySize=auto;html=1;exitX=1;exitY=0.5;exitDx=0;exitDy=0;entryX=0.5;entryY=1;entryDx=0;entryDy=0;strokeColor=default;align=center;verticalAlign=middle;fontFamily=Helvetica;fontSize=11;fontColor=default;labelBackgroundColor=default;endArrow=classic;" edge="1" parent="WIyWlLk6GJQsqaUBKTNV-1" source="gozU1Z4TzMXtubI0LWsz-163" target="WIyWlLk6GJQsqaUBKTNV-3">
          <mxGeometry relative="1" as="geometry">
            <Array as="points">
              <mxPoint x="502" y="525" />
              <mxPoint x="502" y="600" />
              <mxPoint x="-667" y="600" />
            </Array>
          </mxGeometry>
        </mxCell>
        <mxCell id="gozU1Z4TzMXtubI0LWsz-163" value="Skriv ut alla inlägg" style="rounded=1;whiteSpace=wrap;html=1;fillColor=#e1d5e7;strokeColor=#9673a6;" vertex="1" parent="WIyWlLk6GJQsqaUBKTNV-1">
          <mxGeometry x="411.5" y="505" width="70" height="40" as="geometry" />
        </mxCell>
        <mxCell id="gozU1Z4TzMXtubI0LWsz-241" style="edgeStyle=orthogonalEdgeStyle;shape=connector;curved=0;rounded=1;orthogonalLoop=1;jettySize=auto;html=1;exitX=1;exitY=0.5;exitDx=0;exitDy=0;entryX=0;entryY=0.5;entryDx=0;entryDy=0;strokeColor=default;align=center;verticalAlign=middle;fontFamily=Helvetica;fontSize=11;fontColor=default;labelBackgroundColor=default;endArrow=classic;" edge="1" parent="WIyWlLk6GJQsqaUBKTNV-1" source="gozU1Z4TzMXtubI0LWsz-164" target="gozU1Z4TzMXtubI0LWsz-165">
          <mxGeometry relative="1" as="geometry" />
        </mxCell>
        <mxCell id="gozU1Z4TzMXtubI0LWsz-164" value="&lt;font style=&quot;font-size: 12px;&quot;&gt;Val 6 - Sök bland inlägg&lt;br&gt;&lt;/font&gt;" style="rounded=0;whiteSpace=wrap;html=1;fontFamily=Helvetica;fontSize=11;labelBackgroundColor=none;fillColor=#bac8d3;strokeColor=#23445d;" vertex="1" parent="WIyWlLk6GJQsqaUBKTNV-1">
          <mxGeometry x="-410" y="640" width="120" height="40" as="geometry" />
        </mxCell>
        <mxCell id="gozU1Z4TzMXtubI0LWsz-242" style="edgeStyle=orthogonalEdgeStyle;shape=connector;curved=0;rounded=1;orthogonalLoop=1;jettySize=auto;html=1;exitX=0.5;exitY=1;exitDx=0;exitDy=0;entryX=0.5;entryY=1;entryDx=0;entryDy=0;strokeColor=default;align=center;verticalAlign=middle;fontFamily=Helvetica;fontSize=11;fontColor=default;labelBackgroundColor=default;endArrow=classic;" edge="1" parent="WIyWlLk6GJQsqaUBKTNV-1" source="gozU1Z4TzMXtubI0LWsz-165" target="WIyWlLk6GJQsqaUBKTNV-3">
          <mxGeometry relative="1" as="geometry">
            <Array as="points">
              <mxPoint x="-220" y="730" />
              <mxPoint x="-667" y="730" />
            </Array>
          </mxGeometry>
        </mxCell>
        <mxCell id="gozU1Z4TzMXtubI0LWsz-243" style="edgeStyle=orthogonalEdgeStyle;shape=connector;curved=0;rounded=1;orthogonalLoop=1;jettySize=auto;html=1;exitX=1;exitY=0.5;exitDx=0;exitDy=0;entryX=0;entryY=0.5;entryDx=0;entryDy=0;strokeColor=default;align=center;verticalAlign=middle;fontFamily=Helvetica;fontSize=11;fontColor=default;labelBackgroundColor=default;endArrow=classic;" edge="1" parent="WIyWlLk6GJQsqaUBKTNV-1" source="gozU1Z4TzMXtubI0LWsz-165" target="gozU1Z4TzMXtubI0LWsz-167">
          <mxGeometry relative="1" as="geometry" />
        </mxCell>
        <mxCell id="gozU1Z4TzMXtubI0LWsz-165" value="Är listan tom?" style="rhombus;whiteSpace=wrap;html=1;fillColor=#bac8d3;strokeColor=#23445d;" vertex="1" parent="WIyWlLk6GJQsqaUBKTNV-1">
          <mxGeometry x="-258.5" y="625" width="76" height="70" as="geometry" />
        </mxCell>
        <mxCell id="gozU1Z4TzMXtubI0LWsz-244" style="edgeStyle=orthogonalEdgeStyle;shape=connector;curved=0;rounded=1;orthogonalLoop=1;jettySize=auto;html=1;exitX=1;exitY=0.5;exitDx=0;exitDy=0;strokeColor=default;align=center;verticalAlign=middle;fontFamily=Helvetica;fontSize=11;fontColor=default;labelBackgroundColor=default;endArrow=classic;" edge="1" parent="WIyWlLk6GJQsqaUBKTNV-1" source="gozU1Z4TzMXtubI0LWsz-167" target="gozU1Z4TzMXtubI0LWsz-168">
          <mxGeometry relative="1" as="geometry" />
        </mxCell>
        <mxCell id="gozU1Z4TzMXtubI0LWsz-167" value="Låt användaren välja mellan linjär eller binär sökning" style="rounded=1;whiteSpace=wrap;html=1;fillColor=#bac8d3;strokeColor=#23445d;" vertex="1" parent="WIyWlLk6GJQsqaUBKTNV-1">
          <mxGeometry x="-150" y="637.5" width="178.5" height="45" as="geometry" />
        </mxCell>
        <mxCell id="gozU1Z4TzMXtubI0LWsz-233" style="edgeStyle=orthogonalEdgeStyle;shape=connector;curved=0;rounded=1;orthogonalLoop=1;jettySize=auto;html=1;exitX=1;exitY=0.5;exitDx=0;exitDy=0;entryX=0;entryY=0.5;entryDx=0;entryDy=0;strokeColor=default;align=center;verticalAlign=middle;fontFamily=Helvetica;fontSize=11;fontColor=default;labelBackgroundColor=default;endArrow=classic;" edge="1" parent="WIyWlLk6GJQsqaUBKTNV-1" source="gozU1Z4TzMXtubI0LWsz-168" target="gozU1Z4TzMXtubI0LWsz-169">
          <mxGeometry relative="1" as="geometry" />
        </mxCell>
        <mxCell id="gozU1Z4TzMXtubI0LWsz-234" style="edgeStyle=orthogonalEdgeStyle;shape=connector;curved=0;rounded=1;orthogonalLoop=1;jettySize=auto;html=1;exitX=1;exitY=0.5;exitDx=0;exitDy=0;entryX=0;entryY=0.5;entryDx=0;entryDy=0;strokeColor=default;align=center;verticalAlign=middle;fontFamily=Helvetica;fontSize=11;fontColor=default;labelBackgroundColor=default;endArrow=classic;" edge="1" parent="WIyWlLk6GJQsqaUBKTNV-1" source="gozU1Z4TzMXtubI0LWsz-168" target="gozU1Z4TzMXtubI0LWsz-170">
          <mxGeometry relative="1" as="geometry" />
        </mxCell>
        <mxCell id="gozU1Z4TzMXtubI0LWsz-168" value="Läs in menyval" style="shape=parallelogram;perimeter=parallelogramPerimeter;whiteSpace=wrap;html=1;fixedSize=1;fillColor=#bac8d3;strokeColor=#23445d;" vertex="1" parent="WIyWlLk6GJQsqaUBKTNV-1">
          <mxGeometry x="60" y="645" width="120" height="30" as="geometry" />
        </mxCell>
        <mxCell id="gozU1Z4TzMXtubI0LWsz-235" style="edgeStyle=orthogonalEdgeStyle;shape=connector;curved=0;rounded=1;orthogonalLoop=1;jettySize=auto;html=1;exitX=1;exitY=0.5;exitDx=0;exitDy=0;entryX=0;entryY=0.5;entryDx=0;entryDy=0;strokeColor=default;align=center;verticalAlign=middle;fontFamily=Helvetica;fontSize=11;fontColor=default;labelBackgroundColor=default;endArrow=classic;" edge="1" parent="WIyWlLk6GJQsqaUBKTNV-1" source="gozU1Z4TzMXtubI0LWsz-169" target="gozU1Z4TzMXtubI0LWsz-174">
          <mxGeometry relative="1" as="geometry" />
        </mxCell>
        <mxCell id="gozU1Z4TzMXtubI0LWsz-169" value="Sök med linjär sökning" style="rounded=1;whiteSpace=wrap;html=1;fillColor=#bac8d3;strokeColor=#23445d;" vertex="1" parent="WIyWlLk6GJQsqaUBKTNV-1">
          <mxGeometry x="220" y="630" width="150" height="24.5" as="geometry" />
        </mxCell>
        <mxCell id="gozU1Z4TzMXtubI0LWsz-236" style="edgeStyle=orthogonalEdgeStyle;shape=connector;curved=0;rounded=1;orthogonalLoop=1;jettySize=auto;html=1;exitX=1;exitY=0.5;exitDx=0;exitDy=0;entryX=0;entryY=0.5;entryDx=0;entryDy=0;strokeColor=default;align=center;verticalAlign=middle;fontFamily=Helvetica;fontSize=11;fontColor=default;labelBackgroundColor=default;endArrow=classic;" edge="1" parent="WIyWlLk6GJQsqaUBKTNV-1" source="gozU1Z4TzMXtubI0LWsz-170" target="gozU1Z4TzMXtubI0LWsz-174">
          <mxGeometry relative="1" as="geometry" />
        </mxCell>
        <mxCell id="gozU1Z4TzMXtubI0LWsz-170" value="Sök med binär sökning" style="rounded=1;whiteSpace=wrap;html=1;fillColor=#bac8d3;strokeColor=#23445d;" vertex="1" parent="WIyWlLk6GJQsqaUBKTNV-1">
          <mxGeometry x="220" y="660" width="150" height="30" as="geometry" />
        </mxCell>
        <mxCell id="gozU1Z4TzMXtubI0LWsz-238" style="edgeStyle=orthogonalEdgeStyle;shape=connector;curved=0;rounded=1;orthogonalLoop=1;jettySize=auto;html=1;exitX=1;exitY=0.5;exitDx=0;exitDy=0;entryX=0;entryY=0.5;entryDx=0;entryDy=0;strokeColor=default;align=center;verticalAlign=middle;fontFamily=Helvetica;fontSize=11;fontColor=default;labelBackgroundColor=default;endArrow=classic;" edge="1" parent="WIyWlLk6GJQsqaUBKTNV-1" source="gozU1Z4TzMXtubI0LWsz-172" target="gozU1Z4TzMXtubI0LWsz-173">
          <mxGeometry relative="1" as="geometry" />
        </mxCell>
        <mxCell id="gozU1Z4TzMXtubI0LWsz-245" style="edgeStyle=orthogonalEdgeStyle;shape=connector;curved=0;rounded=1;orthogonalLoop=1;jettySize=auto;html=1;exitX=0.5;exitY=1;exitDx=0;exitDy=0;entryX=0.5;entryY=1;entryDx=0;entryDy=0;strokeColor=default;align=center;verticalAlign=middle;fontFamily=Helvetica;fontSize=11;fontColor=default;labelBackgroundColor=default;endArrow=classic;" edge="1" parent="WIyWlLk6GJQsqaUBKTNV-1" source="gozU1Z4TzMXtubI0LWsz-172" target="WIyWlLk6GJQsqaUBKTNV-3">
          <mxGeometry relative="1" as="geometry">
            <Array as="points">
              <mxPoint x="587" y="730" />
              <mxPoint x="-667" y="730" />
            </Array>
          </mxGeometry>
        </mxCell>
        <mxCell id="gozU1Z4TzMXtubI0LWsz-172" value="Sökresultat hittades?" style="rhombus;whiteSpace=wrap;html=1;fillColor=#bac8d3;strokeColor=#23445d;" vertex="1" parent="WIyWlLk6GJQsqaUBKTNV-1">
          <mxGeometry x="548.5" y="625" width="76" height="70" as="geometry" />
        </mxCell>
        <mxCell id="gozU1Z4TzMXtubI0LWsz-246" style="edgeStyle=orthogonalEdgeStyle;shape=connector;curved=0;rounded=1;orthogonalLoop=1;jettySize=auto;html=1;exitX=1;exitY=0.5;exitDx=0;exitDy=0;entryX=0.5;entryY=1;entryDx=0;entryDy=0;strokeColor=default;align=center;verticalAlign=middle;fontFamily=Helvetica;fontSize=11;fontColor=default;labelBackgroundColor=default;endArrow=classic;" edge="1" parent="WIyWlLk6GJQsqaUBKTNV-1" source="gozU1Z4TzMXtubI0LWsz-173" target="WIyWlLk6GJQsqaUBKTNV-3">
          <mxGeometry relative="1" as="geometry">
            <Array as="points">
              <mxPoint x="786" y="660" />
              <mxPoint x="786" y="730" />
              <mxPoint x="-667" y="730" />
            </Array>
          </mxGeometry>
        </mxCell>
        <mxCell id="gozU1Z4TzMXtubI0LWsz-173" value="Skriv ut alla inlägg som hittades" style="rounded=1;whiteSpace=wrap;html=1;fillColor=#bac8d3;strokeColor=#23445d;" vertex="1" parent="WIyWlLk6GJQsqaUBKTNV-1">
          <mxGeometry x="657.5" y="640" width="108.5" height="40" as="geometry" />
        </mxCell>
        <mxCell id="gozU1Z4TzMXtubI0LWsz-237" style="edgeStyle=orthogonalEdgeStyle;shape=connector;curved=0;rounded=1;orthogonalLoop=1;jettySize=auto;html=1;exitX=1;exitY=0.5;exitDx=0;exitDy=0;entryX=0;entryY=0.5;entryDx=0;entryDy=0;strokeColor=default;align=center;verticalAlign=middle;fontFamily=Helvetica;fontSize=11;fontColor=default;labelBackgroundColor=default;endArrow=classic;" edge="1" parent="WIyWlLk6GJQsqaUBKTNV-1" source="gozU1Z4TzMXtubI0LWsz-174" target="gozU1Z4TzMXtubI0LWsz-172">
          <mxGeometry relative="1" as="geometry" />
        </mxCell>
        <mxCell id="gozU1Z4TzMXtubI0LWsz-174" value="Läs in sökord" style="shape=parallelogram;perimeter=parallelogramPerimeter;whiteSpace=wrap;html=1;fixedSize=1;fillColor=#bac8d3;strokeColor=#23445d;" vertex="1" parent="WIyWlLk6GJQsqaUBKTNV-1">
          <mxGeometry x="398.5" y="645" width="120" height="30" as="geometry" />
        </mxCell>
        <mxCell id="gozU1Z4TzMXtubI0LWsz-247" style="edgeStyle=orthogonalEdgeStyle;shape=connector;curved=0;rounded=1;orthogonalLoop=1;jettySize=auto;html=1;exitX=1;exitY=0.5;exitDx=0;exitDy=0;entryX=0;entryY=0.5;entryDx=0;entryDy=0;strokeColor=default;align=center;verticalAlign=middle;fontFamily=Helvetica;fontSize=11;fontColor=default;labelBackgroundColor=default;endArrow=classic;" edge="1" parent="WIyWlLk6GJQsqaUBKTNV-1" source="gozU1Z4TzMXtubI0LWsz-175" target="gozU1Z4TzMXtubI0LWsz-176">
          <mxGeometry relative="1" as="geometry" />
        </mxCell>
        <mxCell id="gozU1Z4TzMXtubI0LWsz-175" value="Val 7 - Avsluta programmet" style="rounded=0;whiteSpace=wrap;html=1;fontFamily=Helvetica;fontSize=11;labelBackgroundColor=none;fillColor=#ffcccc;strokeColor=#36393d;" vertex="1" parent="WIyWlLk6GJQsqaUBKTNV-1">
          <mxGeometry x="-410" y="765" width="120" height="30" as="geometry" />
        </mxCell>
        <mxCell id="gozU1Z4TzMXtubI0LWsz-176" value="Avsluta" style="ellipse;whiteSpace=wrap;html=1;aspect=fixed;fillColor=#ffcccc;strokeColor=#36393d;" vertex="1" parent="WIyWlLk6GJQsqaUBKTNV-1">
          <mxGeometry x="-250.5" y="750" width="60" height="60" as="geometry" />
        </mxCell>
        <mxCell id="gozU1Z4TzMXtubI0LWsz-248" value="JA" style="text;html=1;align=center;verticalAlign=middle;resizable=0;points=[];autosize=1;strokeColor=none;fillColor=none;fontFamily=Helvetica;fontSize=11;fontColor=default;labelBackgroundColor=default;" vertex="1" parent="WIyWlLk6GJQsqaUBKTNV-1">
          <mxGeometry x="-250" y="308" width="40" height="30" as="geometry" />
        </mxCell>
        <mxCell id="gozU1Z4TzMXtubI0LWsz-249" value="NEJ" style="text;html=1;align=center;verticalAlign=middle;resizable=0;points=[];autosize=1;strokeColor=none;fillColor=none;fontFamily=Helvetica;fontSize=11;fontColor=default;labelBackgroundColor=default;" vertex="1" parent="WIyWlLk6GJQsqaUBKTNV-1">
          <mxGeometry x="-182.5" y="248" width="40" height="30" as="geometry" />
        </mxCell>
        <mxCell id="gozU1Z4TzMXtubI0LWsz-250" value="&lt;div&gt;NEJ&lt;/div&gt;" style="text;html=1;align=center;verticalAlign=middle;resizable=0;points=[];autosize=1;strokeColor=none;fillColor=none;fontFamily=Helvetica;fontSize=11;fontColor=default;labelBackgroundColor=default;" vertex="1" parent="WIyWlLk6GJQsqaUBKTNV-1">
          <mxGeometry x="231.5" y="308.5" width="40" height="30" as="geometry" />
        </mxCell>
        <mxCell id="gozU1Z4TzMXtubI0LWsz-253" value="JA" style="text;html=1;align=center;verticalAlign=middle;resizable=0;points=[];autosize=1;strokeColor=none;fillColor=none;fontFamily=Helvetica;fontSize=11;fontColor=default;labelBackgroundColor=default;" vertex="1" parent="WIyWlLk6GJQsqaUBKTNV-1">
          <mxGeometry x="301.5" y="248" width="40" height="30" as="geometry" />
        </mxCell>
        <mxCell id="gozU1Z4TzMXtubI0LWsz-254" value="JA" style="text;html=1;align=center;verticalAlign=middle;resizable=0;points=[];autosize=1;strokeColor=none;fillColor=none;fontFamily=Helvetica;fontSize=11;fontColor=default;labelBackgroundColor=default;" vertex="1" parent="WIyWlLk6GJQsqaUBKTNV-1">
          <mxGeometry x="-250.5" y="435" width="40" height="30" as="geometry" />
        </mxCell>
        <mxCell id="gozU1Z4TzMXtubI0LWsz-255" value="NEJ" style="text;html=1;align=center;verticalAlign=middle;resizable=0;points=[];autosize=1;strokeColor=none;fillColor=none;fontFamily=Helvetica;fontSize=11;fontColor=default;labelBackgroundColor=default;" vertex="1" parent="WIyWlLk6GJQsqaUBKTNV-1">
          <mxGeometry x="-188.5" y="370" width="40" height="30" as="geometry" />
        </mxCell>
      </root>
    </mxGraphModel>
  </diagram>
</mxfile>
